<?xml version="1.0" encoding="UTF-8" standalone="no"?>
<!DOCTYPE svg PUBLIC "-//W3C//DTD SVG 1.1//EN"
 "http://www.w3.org/Graphics/SVG/1.1/DTD/svg11.dtd">
<!-- Generated by graphviz version 2.40.1 (20161225.0304)
 -->
<!-- Title: state transitions Pages: 1 -->
<svg width="1061pt" height="807pt"
 viewBox="0.00 0.00 1060.51 807.00" xmlns="http://www.w3.org/2000/svg" xmlns:xlink="http://www.w3.org/1999/xlink">
<g id="graph0" class="graph" transform="scale(1 1) rotate(0) translate(4 803)">
<title>state transitions</title>
<polygon fill="#ffffff" stroke="transparent" points="-4,4 -4,-803 1056.513,-803 1056.513,4 -4,4"/>
<g id="clust1" class="cluster state regular">
<title>cluster_next_state</title>
<path fill="none" stroke="#000000" stroke-width="2" d="M20,-8C20,-8 741,-8 741,-8 747,-8 753,-14 753,-20 753,-20 753,-779 753,-779 753,-785 747,-791 741,-791 741,-791 20,-791 20,-791 14,-791 8,-785 8,-779 8,-779 8,-20 8,-20 8,-14 14,-8 20,-8"/>
<text text-anchor="start" x="353.3208" y="-772.2" font-family="Helvetica,sans-Serif" font-size="12.00" fill="#000000">next_state</text>
</g>
<!-- next_state -->
<!-- S_IDLE -->
<g id="node2" class="node state regular">
<title>S_IDLE</title>
<polygon fill="#ffffff" fill-opacity="0.003922" stroke="transparent" stroke-width="2" points="249.5,-426 186.5,-426 186.5,-390 249.5,-390 249.5,-426"/>
<text text-anchor="start" x="197.8276" y="-404.2" font-family="Helvetica,sans-Serif" font-size="12.00" fill="#000000">S_IDLE</text>
<path fill="none" stroke="#000000" stroke-width="2" d="M198.8333,-391C198.8333,-391 237.1667,-391 237.1667,-391 242.8333,-391 248.5,-396.6667 248.5,-402.3333 248.5,-402.3333 248.5,-413.6667 248.5,-413.6667 248.5,-419.3333 242.8333,-425 237.1667,-425 237.1667,-425 198.8333,-425 198.8333,-425 193.1667,-425 187.5,-419.3333 187.5,-413.6667 187.5,-413.6667 187.5,-402.3333 187.5,-402.3333 187.5,-396.6667 193.1667,-391 198.8333,-391"/>
</g>
<!-- S_SCAN_START -->
<g id="node3" class="node state regular">
<title>S_SCAN_START</title>
<polygon fill="#ffffff" fill-opacity="0.003922" stroke="transparent" stroke-width="2" points="265,-298 149,-298 149,-262 265,-262 265,-298"/>
<text text-anchor="start" x="159.9972" y="-276.2" font-family="Helvetica,sans-Serif" font-size="12.00" fill="#000000">S_SCAN_START</text>
<path fill="none" stroke="#000000" stroke-width="2" d="M161.3333,-263C161.3333,-263 252.6667,-263 252.6667,-263 258.3333,-263 264,-268.6667 264,-274.3333 264,-274.3333 264,-285.6667 264,-285.6667 264,-291.3333 258.3333,-297 252.6667,-297 252.6667,-297 161.3333,-297 161.3333,-297 155.6667,-297 150,-291.3333 150,-285.6667 150,-285.6667 150,-274.3333 150,-274.3333 150,-268.6667 155.6667,-263 161.3333,-263"/>
</g>
<!-- S_IDLE&#45;&gt;S_SCAN_START -->
<g id="edge1" class="edge transition">
<title>S_IDLE&#45;&gt;S_SCAN_START</title>
<path fill="none" stroke="#000000" d="M216.4473,-389.9322C214.6314,-368.8019 211.6022,-333.5529 209.4642,-308.6744"/>
<polygon fill="#000000" stroke="#000000" points="212.9239,-308.0539 208.5804,-298.3904 205.9496,-308.6533 212.9239,-308.0539"/>
<text text-anchor="start" x="211" y="-329" font-family="Helvetica,sans-Serif" font-size="10.00" fill="#000000">start_cfg &#160;&#160;</text>
</g>
<!-- S_ISSUE_CMD -->
<g id="node14" class="node state regular">
<title>S_ISSUE_CMD</title>
<polygon fill="#ffffff" fill-opacity="0.003922" stroke="transparent" stroke-width="2" points="326,-216 220,-216 220,-180 326,-180 326,-216"/>
<text text-anchor="start" x="230.6646" y="-194.2" font-family="Helvetica,sans-Serif" font-size="12.00" fill="#000000">S_ISSUE_CMD</text>
<path fill="none" stroke="#000000" stroke-width="2" d="M232.3333,-181C232.3333,-181 313.6667,-181 313.6667,-181 319.3333,-181 325,-186.6667 325,-192.3333 325,-192.3333 325,-203.6667 325,-203.6667 325,-209.3333 319.3333,-215 313.6667,-215 313.6667,-215 232.3333,-215 232.3333,-215 226.6667,-215 221,-209.3333 221,-203.6667 221,-203.6667 221,-192.3333 221,-192.3333 221,-186.6667 226.6667,-181 232.3333,-181"/>
</g>
<!-- S_SCAN_START&#45;&gt;S_ISSUE_CMD -->
<g id="edge2" class="edge transition">
<title>S_SCAN_START&#45;&gt;S_ISSUE_CMD</title>
<path fill="none" stroke="#000000" d="M221.6475,-261.8015C230.5341,-250.7606 242.0242,-236.4851 251.8818,-224.2378"/>
<polygon fill="#000000" stroke="#000000" points="254.8498,-226.1323 258.3934,-216.1476 249.3967,-221.7432 254.8498,-226.1323"/>
<text text-anchor="middle" x="245.3895" y="-236" font-family="Helvetica,sans-Serif" font-size="10.00" fill="#000000"> </text>
</g>
<!-- S_SCAN_READ1 -->
<g id="node4" class="node state regular">
<title>S_SCAN_READ1</title>
<polygon fill="#ffffff" fill-opacity="0.003922" stroke="transparent" stroke-width="2" points="460,-753 344,-753 344,-717 460,-717 460,-753"/>
<text text-anchor="start" x="354.6612" y="-731.2" font-family="Helvetica,sans-Serif" font-size="12.00" fill="#000000">S_SCAN_READ1</text>
<path fill="none" stroke="#000000" stroke-width="2" d="M356.3333,-718C356.3333,-718 447.6667,-718 447.6667,-718 453.3333,-718 459,-723.6667 459,-729.3333 459,-729.3333 459,-740.6667 459,-740.6667 459,-746.3333 453.3333,-752 447.6667,-752 447.6667,-752 356.3333,-752 356.3333,-752 350.6667,-752 345,-746.3333 345,-740.6667 345,-740.6667 345,-729.3333 345,-729.3333 345,-723.6667 350.6667,-718 356.3333,-718"/>
</g>
<!-- S_SCAN_READ1&#45;&gt;S_SCAN_START -->
<g id="edge5" class="edge transition">
<title>S_SCAN_READ1&#45;&gt;S_SCAN_START</title>
<path fill="none" stroke="#000000" d="M460.0156,-729.4965C557.5898,-720.0449 744,-701.0639 744,-694 744,-694 744,-694 744,-626.5 744,-488.7192 726.8306,-422.1412 612,-346 486.6443,-262.8799 424.5002,-327.4397 277,-298 276.404,-297.881 275.8054,-297.7601 275.2047,-297.6374"/>
<polygon fill="#000000" stroke="#000000" points="275.8421,-294.1945 265.329,-295.5076 274.3664,-301.0372 275.8421,-294.1945"/>
<text text-anchor="start" x="743" y="-563" font-family="Helvetica,sans-Serif" font-size="10.00" fill="#000000">not ((latched_rdata !== 16&#39;h0000) &amp;&amp; (latched_rdata !== 16&#39;hFFFF)) &#160;&#160;</text>
<text text-anchor="start" x="743" y="-551" font-family="Helvetica,sans-Serif" font-size="10.00" fill="#000000">not (scan_addr == 5&#39;d31) &#160;&#160;</text>
</g>
<!-- S_SCAN_READ2 -->
<g id="node5" class="node state regular">
<title>S_SCAN_READ2</title>
<polygon fill="#ffffff" fill-opacity="0.003922" stroke="transparent" stroke-width="2" points="460,-671 344,-671 344,-635 460,-635 460,-671"/>
<text text-anchor="start" x="354.6612" y="-649.2" font-family="Helvetica,sans-Serif" font-size="12.00" fill="#000000">S_SCAN_READ2</text>
<path fill="none" stroke="#000000" stroke-width="2" d="M356.3333,-636C356.3333,-636 447.6667,-636 447.6667,-636 453.3333,-636 459,-641.6667 459,-647.3333 459,-647.3333 459,-658.6667 459,-658.6667 459,-664.3333 453.3333,-670 447.6667,-670 447.6667,-670 356.3333,-670 356.3333,-670 350.6667,-670 345,-664.3333 345,-658.6667 345,-658.6667 345,-647.3333 345,-647.3333 345,-641.6667 350.6667,-636 356.3333,-636"/>
</g>
<!-- S_SCAN_READ1&#45;&gt;S_SCAN_READ2 -->
<g id="edge3" class="edge transition">
<title>S_SCAN_READ1&#45;&gt;S_SCAN_READ2</title>
<path fill="none" stroke="#000000" d="M402,-716.8015C402,-706.3976 402,-693.1215 402,-681.3768"/>
<polygon fill="#000000" stroke="#000000" points="405.5001,-681.1476 402,-671.1476 398.5001,-681.1476 405.5001,-681.1476"/>
<text text-anchor="start" x="402" y="-691" font-family="Helvetica,sans-Serif" font-size="10.00" fill="#000000">(latched_rdata !== 16&#39;h0000) &amp;&amp; (latched_rdata !== 16&#39;hFFFF) &#160;&#160;</text>
</g>
<!-- S_ERROR -->
<g id="node13" class="node state regular">
<title>S_ERROR</title>
<polygon fill="#ffffff" fill-opacity="0.003922" stroke="transparent" stroke-width="2" points="304.5,-578 225.5,-578 225.5,-542 304.5,-542 304.5,-578"/>
<text text-anchor="start" x="236.5002" y="-556.2" font-family="Helvetica,sans-Serif" font-size="12.00" fill="#000000">S_ERROR</text>
<path fill="none" stroke="#000000" stroke-width="2" d="M237.8333,-543C237.8333,-543 292.1667,-543 292.1667,-543 297.8333,-543 303.5,-548.6667 303.5,-554.3333 303.5,-554.3333 303.5,-565.6667 303.5,-565.6667 303.5,-571.3333 297.8333,-577 292.1667,-577 292.1667,-577 237.8333,-577 237.8333,-577 232.1667,-577 226.5,-571.3333 226.5,-565.6667 226.5,-565.6667 226.5,-554.3333 226.5,-554.3333 226.5,-548.6667 232.1667,-543 237.8333,-543"/>
</g>
<!-- S_SCAN_READ1&#45;&gt;S_ERROR -->
<g id="edge4" class="edge transition">
<title>S_SCAN_READ1&#45;&gt;S_ERROR</title>
<path fill="none" stroke="#000000" d="M343.553,-732.4937C291.9969,-728.6342 225,-718.84 225,-694 225,-694 225,-694 225,-612 225,-602.4647 229.2778,-593.6047 235.0356,-585.9982"/>
<polygon fill="#000000" stroke="#000000" points="237.8326,-588.1149 241.7318,-578.2637 232.5403,-583.5331 237.8326,-588.1149"/>
<text text-anchor="start" x="225" y="-650" font-family="Helvetica,sans-Serif" font-size="10.00" fill="#000000">scan_addr == 5&#39;d31 &#160;&#160;</text>
</g>
<!-- S_SCAN_READ2&#45;&gt;S_SCAN_START -->
<g id="edge8" class="edge transition">
<title>S_SCAN_READ2&#45;&gt;S_SCAN_START</title>
<path fill="none" stroke="#000000" d="M396.4115,-634.7779C393.4419,-625.9119 389.48,-615.2068 385,-606 358.3971,-551.3291 329.5352,-548.3608 312.487,-490 306.2556,-468.6682 312,-462.2233 312,-440 312,-440 312,-440 312,-332 312,-321.368 294.4934,-310.7487 273.777,-301.9044"/>
<polygon fill="#000000" stroke="#000000" points="274.9974,-298.6225 264.4155,-298.1004 272.3622,-305.1075 274.9974,-298.6225"/>
<text text-anchor="start" x="312" y="-475" font-family="Helvetica,sans-Serif" font-size="10.00" fill="#000000">not ((latched_rdata !== 16&#39;h0000) &amp;&amp; (latched_rdata !== 16&#39;hFFFF)) &#160;&#160;</text>
<text text-anchor="start" x="312" y="-463" font-family="Helvetica,sans-Serif" font-size="10.00" fill="#000000">not (scan_addr == 5&#39;d31) &#160;&#160;</text>
</g>
<!-- S_CFG_WAIT_RST -->
<g id="node6" class="node state regular">
<title>S_CFG_WAIT_RST</title>
<polygon fill="#ffffff" fill-opacity="0.003922" stroke="transparent" stroke-width="2" points="506.5,-534 377.5,-534 377.5,-498 506.5,-498 506.5,-534"/>
<text text-anchor="start" x="388.8324" y="-512.2" font-family="Helvetica,sans-Serif" font-size="12.00" fill="#000000">S_CFG_WAIT_RST</text>
<path fill="none" stroke="#000000" stroke-width="2" d="M389.8333,-499C389.8333,-499 494.1667,-499 494.1667,-499 499.8333,-499 505.5,-504.6667 505.5,-510.3333 505.5,-510.3333 505.5,-521.6667 505.5,-521.6667 505.5,-527.3333 499.8333,-533 494.1667,-533 494.1667,-533 389.8333,-533 389.8333,-533 384.1667,-533 378.5,-527.3333 378.5,-521.6667 378.5,-521.6667 378.5,-510.3333 378.5,-510.3333 378.5,-504.6667 384.1667,-499 389.8333,-499"/>
</g>
<!-- S_SCAN_READ2&#45;&gt;S_CFG_WAIT_RST -->
<g id="edge6" class="edge transition">
<title>S_SCAN_READ2&#45;&gt;S_CFG_WAIT_RST</title>
<path fill="none" stroke="#000000" d="M401.1734,-634.8789C400.3407,-610.8198 399.8706,-569.0231 409.4439,-543.3184"/>
<polygon fill="#000000" stroke="#000000" points="412.7313,-544.5517 413.8098,-534.0119 406.394,-541.5787 412.7313,-544.5517"/>
<text text-anchor="start" x="400" y="-609" font-family="Helvetica,sans-Serif" font-size="10.00" fill="#000000">(latched_rdata !== 16&#39;h0000) &amp;&amp; (latched_rdata !== 16&#39;hFFFF) &#160;&#160;</text>
</g>
<!-- S_SCAN_READ2&#45;&gt;S_ERROR -->
<g id="edge7" class="edge transition">
<title>S_SCAN_READ2&#45;&gt;S_ERROR</title>
<path fill="none" stroke="#000000" d="M343.7943,-637.6472C317.784,-630.3467 291.9073,-622.2928 287.299,-618 278.8046,-610.0873 273.5113,-598.5785 270.2289,-587.8951"/>
<polygon fill="#000000" stroke="#000000" points="273.5712,-586.8413 267.6592,-578.0494 266.7981,-588.6092 273.5712,-586.8413"/>
<text text-anchor="start" x="287" y="-609" font-family="Helvetica,sans-Serif" font-size="10.00" fill="#000000">scan_addr == 5&#39;d31 &#160;&#160;</text>
</g>
<!-- S_CFG_ANAR -->
<g id="node7" class="node state regular">
<title>S_CFG_ANAR</title>
<polygon fill="#ffffff" fill-opacity="0.003922" stroke="transparent" stroke-width="2" points="601,-382 499,-382 499,-346 601,-346 601,-382"/>
<text text-anchor="start" x="509.998" y="-360.2" font-family="Helvetica,sans-Serif" font-size="12.00" fill="#000000">S_CFG_ANAR</text>
<path fill="none" stroke="#000000" stroke-width="2" d="M511.3333,-347C511.3333,-347 588.6667,-347 588.6667,-347 594.3333,-347 600,-352.6667 600,-358.3333 600,-358.3333 600,-369.6667 600,-369.6667 600,-375.3333 594.3333,-381 588.6667,-381 588.6667,-381 511.3333,-381 511.3333,-381 505.6667,-381 500,-375.3333 500,-369.6667 500,-369.6667 500,-358.3333 500,-358.3333 500,-352.6667 505.6667,-347 511.3333,-347"/>
</g>
<!-- S_CFG_WAIT_RST&#45;&gt;S_CFG_ANAR -->
<g id="edge9" class="edge transition">
<title>S_CFG_WAIT_RST&#45;&gt;S_CFG_ANAR</title>
<path fill="none" stroke="#000000" d="M506.783,-511.0398C556.8773,-506.528 619.0206,-499.1793 627,-490 688.5282,-419.22 562.0112,-462.2672 547.295,-446 534.3544,-431.6955 535.8617,-409.5787 540.1524,-391.9177"/>
<polygon fill="#000000" stroke="#000000" points="543.5679,-392.7014 542.9122,-382.1268 536.8304,-390.8022 543.5679,-392.7014"/>
<text text-anchor="start" x="547" y="-437" font-family="Helvetica,sans-Serif" font-size="10.00" fill="#000000">timer == 32&#39;d1_000_000 &#160;&#160;</text>
</g>
<!-- S_CFG_ANAR&#45;&gt;S_ISSUE_CMD -->
<g id="edge10" class="edge transition">
<title>S_CFG_ANAR&#45;&gt;S_ISSUE_CMD</title>
<path fill="none" stroke="#000000" d="M551.0469,-345.717C551.5308,-335.753 552,-323.2027 552,-312 552,-312 552,-312 552,-239 552,-217.3224 418.4561,-206.0152 336.1521,-201.105"/>
<polygon fill="#000000" stroke="#000000" points="336.3205,-197.609 326.1345,-200.5237 335.9149,-204.5972 336.3205,-197.609"/>
<text text-anchor="middle" x="553.3895" y="-277" font-family="Helvetica,sans-Serif" font-size="10.00" fill="#000000"> </text>
</g>
<!-- S_CFG_1000 -->
<g id="node8" class="node state regular">
<title>S_CFG_1000</title>
<polygon fill="#ffffff" fill-opacity="0.003922" stroke="transparent" stroke-width="2" points="507.5,-298 412.5,-298 412.5,-262 507.5,-262 507.5,-298"/>
<text text-anchor="start" x="423.822" y="-276.2" font-family="Helvetica,sans-Serif" font-size="12.00" fill="#000000">S_CFG_1000</text>
<path fill="none" stroke="#000000" stroke-width="2" d="M424.8333,-263C424.8333,-263 495.1667,-263 495.1667,-263 500.8333,-263 506.5,-268.6667 506.5,-274.3333 506.5,-274.3333 506.5,-285.6667 506.5,-285.6667 506.5,-291.3333 500.8333,-297 495.1667,-297 495.1667,-297 424.8333,-297 424.8333,-297 419.1667,-297 413.5,-291.3333 413.5,-285.6667 413.5,-285.6667 413.5,-274.3333 413.5,-274.3333 413.5,-268.6667 419.1667,-263 424.8333,-263"/>
</g>
<!-- S_CFG_1000&#45;&gt;S_ISSUE_CMD -->
<g id="edge11" class="edge transition">
<title>S_CFG_1000&#45;&gt;S_ISSUE_CMD</title>
<path fill="none" stroke="#000000" d="M418.4986,-261.8015C390.4387,-249.4972 353.2174,-233.1756 323.4463,-220.1209"/>
<polygon fill="#000000" stroke="#000000" points="324.627,-216.8169 314.0632,-216.0063 321.8159,-223.2277 324.627,-216.8169"/>
<text text-anchor="middle" x="379.3895" y="-236" font-family="Helvetica,sans-Serif" font-size="10.00" fill="#000000"> </text>
</g>
<!-- S_CFG_BMCR -->
<g id="node9" class="node state regular">
<title>S_CFG_BMCR</title>
<polygon fill="#ffffff" fill-opacity="0.003922" stroke="transparent" stroke-width="2" points="390.5,-298 287.5,-298 287.5,-262 390.5,-262 390.5,-298"/>
<text text-anchor="start" x="298.502" y="-276.2" font-family="Helvetica,sans-Serif" font-size="12.00" fill="#000000">S_CFG_BMCR</text>
<path fill="none" stroke="#000000" stroke-width="2" d="M299.8333,-263C299.8333,-263 378.1667,-263 378.1667,-263 383.8333,-263 389.5,-268.6667 389.5,-274.3333 389.5,-274.3333 389.5,-285.6667 389.5,-285.6667 389.5,-291.3333 383.8333,-297 378.1667,-297 378.1667,-297 299.8333,-297 299.8333,-297 294.1667,-297 288.5,-291.3333 288.5,-285.6667 288.5,-285.6667 288.5,-274.3333 288.5,-274.3333 288.5,-268.6667 294.1667,-263 299.8333,-263"/>
</g>
<!-- S_CFG_BMCR&#45;&gt;S_ISSUE_CMD -->
<g id="edge12" class="edge transition">
<title>S_CFG_BMCR&#45;&gt;S_ISSUE_CMD</title>
<path fill="none" stroke="#000000" d="M324.3525,-261.8015C315.4659,-250.7606 303.9758,-236.4851 294.1182,-224.2378"/>
<polygon fill="#000000" stroke="#000000" points="296.6033,-221.7432 287.6066,-216.1476 291.1502,-226.1323 296.6033,-221.7432"/>
<text text-anchor="middle" x="311.3895" y="-236" font-family="Helvetica,sans-Serif" font-size="10.00" fill="#000000"> </text>
</g>
<!-- S_CFG_POLL -->
<g id="node10" class="node state regular">
<title>S_CFG_POLL</title>
<polygon fill="#ffffff" fill-opacity="0.003922" stroke="transparent" stroke-width="2" points="115.5,-671 16.5,-671 16.5,-635 115.5,-635 115.5,-671"/>
<text text-anchor="start" x="27.824" y="-649.2" font-family="Helvetica,sans-Serif" font-size="12.00" fill="#000000">S_CFG_POLL</text>
<path fill="none" stroke="#000000" stroke-width="2" d="M28.8333,-636C28.8333,-636 103.1667,-636 103.1667,-636 108.8333,-636 114.5,-641.6667 114.5,-647.3333 114.5,-647.3333 114.5,-658.6667 114.5,-658.6667 114.5,-664.3333 108.8333,-670 103.1667,-670 103.1667,-670 28.8333,-670 28.8333,-670 23.1667,-670 17.5,-664.3333 17.5,-658.6667 17.5,-658.6667 17.5,-647.3333 17.5,-647.3333 17.5,-641.6667 23.1667,-636 28.8333,-636"/>
</g>
<!-- S_CFG_LOOPBACK -->
<g id="node11" class="node state regular">
<title>S_CFG_LOOPBACK</title>
<polygon fill="#ffffff" fill-opacity="0.003922" stroke="transparent" stroke-width="2" points="174,-490 40,-490 40,-454 174,-454 174,-490"/>
<text text-anchor="start" x="50.6564" y="-468.2" font-family="Helvetica,sans-Serif" font-size="12.00" fill="#000000">S_CFG_LOOPBACK</text>
<path fill="none" stroke="#000000" stroke-width="2" d="M52.3333,-455C52.3333,-455 161.6667,-455 161.6667,-455 167.3333,-455 173,-460.6667 173,-466.3333 173,-466.3333 173,-477.6667 173,-477.6667 173,-483.3333 167.3333,-489 161.6667,-489 161.6667,-489 52.3333,-489 52.3333,-489 46.6667,-489 41,-483.3333 41,-477.6667 41,-477.6667 41,-466.3333 41,-466.3333 41,-460.6667 46.6667,-455 52.3333,-455"/>
</g>
<!-- S_CFG_POLL&#45;&gt;S_CFG_LOOPBACK -->
<g id="edge13" class="edge transition">
<title>S_CFG_POLL&#45;&gt;S_CFG_LOOPBACK</title>
<path fill="none" stroke="#000000" d="M53.1046,-634.782C45.2459,-621.4567 37.5019,-602.8421 41.968,-586 50.6298,-553.3351 71.0827,-520.2556 86.7572,-498.2056"/>
<polygon fill="#000000" stroke="#000000" points="89.6502,-500.1785 92.7079,-490.0345 83.9916,-496.0576 89.6502,-500.1785"/>
<text text-anchor="start" x="41" y="-589" font-family="Helvetica,sans-Serif" font-size="10.00" fill="#000000">latched_rdata[2] &#160;&#160;</text>
</g>
<!-- S_CFG_POLL&#45;&gt;S_ERROR -->
<g id="edge14" class="edge transition">
<title>S_CFG_POLL&#45;&gt;S_ERROR</title>
<path fill="none" stroke="#000000" d="M75.9676,-634.9129C82.338,-624.9672 91.4818,-613.2172 102.575,-606 113.3656,-598.9797 202.6822,-581.7406 215,-578 215.2097,-577.9363 215.4197,-577.8723 215.6302,-577.8079"/>
<polygon fill="#000000" stroke="#000000" points="216.824,-581.1007 225.2758,-574.7118 214.6846,-574.4356 216.824,-581.1007"/>
<text text-anchor="start" x="102" y="-609" font-family="Helvetica,sans-Serif" font-size="10.00" fill="#000000">timer &gt; 32&#39;d10_000_000 &#160;&#160;</text>
</g>
<!-- S_CFG_POLL&#45;&gt;S_ISSUE_CMD -->
<g id="edge15" class="edge transition">
<title>S_CFG_POLL&#45;&gt;S_ISSUE_CMD</title>
<path fill="none" stroke="#000000" d="M29.3648,-634.9641C22.2756,-628.9345 17,-621.3174 17,-612 17,-612 17,-612 17,-516 17,-447.8028 38,-432.1972 38,-364 38,-364 38,-364 38,-239 38,-221.5083 140.3435,-209.2474 209.9519,-202.9312"/>
<polygon fill="#000000" stroke="#000000" points="210.3169,-206.4126 219.9684,-202.0425 209.6982,-199.44 210.3169,-206.4126"/>
<text text-anchor="start" x="36" y="-405" font-family="Helvetica,sans-Serif" font-size="10.00" fill="#000000">!mdio_busy &#160;&#160;</text>
</g>
<!-- S_CFG_LOOPBACK&#45;&gt;S_ISSUE_CMD -->
<g id="edge16" class="edge transition">
<title>S_CFG_LOOPBACK&#45;&gt;S_ISSUE_CMD</title>
<path fill="none" stroke="#000000" d="M114.5059,-453.8546C119.06,-441.2232 124,-423.865 124,-408 124,-408 124,-408 124,-239 124,-220.1008 169.1262,-209.5858 209.7102,-203.9507"/>
<polygon fill="#000000" stroke="#000000" points="210.1664,-207.421 219.6284,-202.6544 209.2591,-200.48 210.1664,-207.421"/>
<text text-anchor="middle" x="125.3895" y="-309" font-family="Helvetica,sans-Serif" font-size="10.00" fill="#000000"> </text>
</g>
<!-- S_DONE -->
<g id="node12" class="node state regular">
<title>S_DONE</title>
<polygon fill="#ffffff" fill-opacity="0.003922" stroke="transparent" stroke-width="2" points="203.5,-578 132.5,-578 132.5,-542 203.5,-542 203.5,-578"/>
<text text-anchor="start" x="143.8316" y="-556.2" font-family="Helvetica,sans-Serif" font-size="12.00" fill="#000000">S_DONE</text>
<path fill="none" stroke="#000000" stroke-width="2" d="M144.8333,-543C144.8333,-543 191.1667,-543 191.1667,-543 196.8333,-543 202.5,-548.6667 202.5,-554.3333 202.5,-554.3333 202.5,-565.6667 202.5,-565.6667 202.5,-571.3333 196.8333,-577 191.1667,-577 191.1667,-577 144.8333,-577 144.8333,-577 139.1667,-577 133.5,-571.3333 133.5,-565.6667 133.5,-565.6667 133.5,-554.3333 133.5,-554.3333 133.5,-548.6667 139.1667,-543 144.8333,-543"/>
</g>
<!-- S_DONE&#45;&gt;S_IDLE -->
<g id="edge17" class="edge transition">
<title>S_DONE&#45;&gt;S_IDLE</title>
<path fill="none" stroke="#000000" d="M173.932,-541.9667C182.5776,-515.684 198.7138,-466.63 208.8774,-435.7328"/>
<polygon fill="#000000" stroke="#000000" points="212.2756,-436.6028 212.0757,-426.0098 205.6262,-434.4154 212.2756,-436.6028"/>
<text text-anchor="middle" x="203.3895" y="-469" font-family="Helvetica,sans-Serif" font-size="10.00" fill="#000000"> </text>
</g>
<!-- S_ERROR&#45;&gt;S_IDLE -->
<g id="edge18" class="edge transition">
<title>S_ERROR&#45;&gt;S_IDLE</title>
<path fill="none" stroke="#000000" d="M259.4239,-541.9667C251.297,-515.684 236.129,-466.63 226.5753,-435.7328"/>
<polygon fill="#000000" stroke="#000000" points="229.8668,-434.5296 223.5688,-426.0098 223.1792,-436.5975 229.8668,-434.5296"/>
<text text-anchor="middle" x="244.3895" y="-469" font-family="Helvetica,sans-Serif" font-size="10.00" fill="#000000"> </text>
</g>
<!-- S_WAIT_ACK -->
<g id="node15" class="node state regular">
<title>S_WAIT_ACK</title>
<polygon fill="#ffffff" fill-opacity="0.003922" stroke="transparent" stroke-width="2" points="322,-134 224,-134 224,-98 322,-98 322,-134"/>
<text text-anchor="start" x="234.996" y="-112.2" font-family="Helvetica,sans-Serif" font-size="12.00" fill="#000000">S_WAIT_ACK</text>
<path fill="none" stroke="#000000" stroke-width="2" d="M236.3333,-99C236.3333,-99 309.6667,-99 309.6667,-99 315.3333,-99 321,-104.6667 321,-110.3333 321,-110.3333 321,-121.6667 321,-121.6667 321,-127.3333 315.3333,-133 309.6667,-133 309.6667,-133 236.3333,-133 236.3333,-133 230.6667,-133 225,-127.3333 225,-121.6667 225,-121.6667 225,-110.3333 225,-110.3333 225,-104.6667 230.6667,-99 236.3333,-99"/>
</g>
<!-- S_ISSUE_CMD&#45;&gt;S_WAIT_ACK -->
<g id="edge19" class="edge transition">
<title>S_ISSUE_CMD&#45;&gt;S_WAIT_ACK</title>
<path fill="none" stroke="#000000" d="M273,-179.8015C273,-169.3976 273,-156.1215 273,-144.3768"/>
<polygon fill="#000000" stroke="#000000" points="276.5001,-144.1476 273,-134.1476 269.5001,-144.1476 276.5001,-144.1476"/>
<text text-anchor="middle" x="274.3895" y="-154" font-family="Helvetica,sans-Serif" font-size="10.00" fill="#000000"> </text>
</g>
<!-- return_state -->
<g id="node16" class="node state regular">
<title>return_state</title>
<polygon fill="#ffffff" fill-opacity="0.003922" stroke="transparent" stroke-width="2" points="316,-52 230,-52 230,-16 316,-16 316,-52"/>
<text text-anchor="start" x="240.9906" y="-30.2" font-family="Helvetica,sans-Serif" font-size="12.00" fill="#000000">return_state</text>
<path fill="none" stroke="#ff0000" stroke-width="2" d="M242.3333,-17C242.3333,-17 303.6667,-17 303.6667,-17 309.3333,-17 315,-22.6667 315,-28.3333 315,-28.3333 315,-39.6667 315,-39.6667 315,-45.3333 309.3333,-51 303.6667,-51 303.6667,-51 242.3333,-51 242.3333,-51 236.6667,-51 231,-45.3333 231,-39.6667 231,-39.6667 231,-28.3333 231,-28.3333 231,-22.6667 236.6667,-17 242.3333,-17"/>
</g>
<!-- S_WAIT_ACK&#45;&gt;return_state -->
<g id="edge20" class="edge transition">
<title>S_WAIT_ACK&#45;&gt;return_state</title>
<path fill="none" stroke="#ff0000" d="M273,-97.8015C273,-87.3976 273,-74.1215 273,-62.3768"/>
<polygon fill="#ff0000" stroke="#ff0000" points="276.5001,-62.1476 273,-52.1476 269.5001,-62.1476 276.5001,-62.1476"/>
<text text-anchor="start" x="273" y="-72" font-family="Helvetica,sans-Serif" font-size="10.00" fill="#ff0000">mdio_ack &#160;&#160;</text>
</g>
</g>
</svg>
